<?xml version="1.0" encoding="utf-8"?>
<!-- Generator: Adobe Illustrator 15.0.0, SVG Export Plug-In . SVG Version: 6.00 Build 0)  -->
<!DOCTYPE svg PUBLIC "-//W3C//DTD SVG 1.1//EN" "http://www.w3.org/Graphics/SVG/1.1/DTD/svg11.dtd">
<svg version="1.1" id="Layer_1" xmlns="http://www.w3.org/2000/svg" xmlns:xlink="http://www.w3.org/1999/xlink" x="0px" y="0px"
	 width="216px" height="216px" viewBox="0 0 216 216" enable-background="new 0 0 216 216" xml:space="preserve">
<g>
	<path fill="#1C4280" d="M30.521,95.905v3.804h4.581v0.81h-4.581v3.817h-1.005v-3.817h-4.58v-0.81h4.58v-3.804H30.521z"/>
	<path fill="#1C4280" d="M39.324,102.179c0.224,0.676,0.67,1.014,1.339,1.014c0.784,0,1.364-0.324,1.739-0.973
		c0.349-0.613,0.542-1.552,0.58-2.817c-0.539,0.844-1.407,1.266-2.604,1.266c-1.062,0-1.911-0.349-2.548-1.048
		c-0.566-0.622-0.85-1.416-0.85-2.382c0-1.225,0.395-2.173,1.185-2.844c0.68-0.581,1.567-0.871,2.662-0.871
		c1.404,0,2.457,0.46,3.16,1.381c0.658,0.857,0.987,2.096,0.987,3.715c0,2.196-0.433,3.774-1.298,4.736
		c-0.708,0.785-1.726,1.177-3.054,1.177c-1.721,0-2.84-0.572-3.356-1.715L39.324,102.179z M42.885,97.994
		c-0.017-2.091-0.676-3.137-1.977-3.137c-1.203,0-1.805,0.78-1.805,2.341c0,0.712,0.18,1.259,0.539,1.64
		c0.311,0.327,0.716,0.49,1.217,0.49C41.741,99.328,42.416,98.883,42.885,97.994z"/>
	<path fill="#1C4280" d="M51.835,93.632v9.35h2.376v1.354h-6.876v-1.354h2.507v-7.58c-0.686,0.39-1.473,0.706-2.359,0.946
		l-0.335-1.463c1.018-0.245,2.009-0.663,2.973-1.252H51.835z"/>
	<path fill="#BF222F" d="M66.33,101.561c0.288,0.872,0.864,1.308,1.728,1.308c1.012,0,1.76-0.418,2.244-1.255
		c0.45-0.791,0.699-2.002,0.748-3.635c-0.695,1.088-1.815,1.633-3.36,1.633c-1.37,0-2.466-0.451-3.287-1.352
		c-0.731-0.802-1.096-1.826-1.096-3.073c0-1.58,0.509-2.803,1.527-3.67c0.878-0.749,2.022-1.124,3.435-1.124
		c1.813,0,3.171,0.594,4.077,1.782c0.85,1.106,1.275,2.704,1.275,4.794c0,2.833-0.559,4.87-1.676,6.111
		c-0.913,1.013-2.227,1.519-3.94,1.519c-2.22,0-3.663-0.737-4.33-2.212L66.33,101.561z M70.924,96.161
		c-0.021-2.698-0.871-4.047-2.55-4.047c-1.553,0-2.328,1.007-2.328,3.021c0,0.919,0.231,1.624,0.695,2.116
		c0.4,0.421,0.923,0.632,1.569,0.632C69.448,97.882,70.319,97.309,70.924,96.161z"/>
	<path fill="#BF222F" d="M75.854,94.186c0.196-1.294,0.812-2.274,1.844-2.941c0.871-0.568,1.949-0.852,3.234-0.852
		c1.608,0,2.852,0.363,3.729,1.088c0.794,0.65,1.19,1.519,1.19,2.608c0,0.819-0.273,1.589-0.821,2.309
		c-0.492,0.644-1.327,1.422-2.508,2.335c-2.079,1.551-3.417,2.821-4.014,3.811h7.406v1.8H75.707v-1.598
		c0.934-1.627,2.504-3.324,4.71-5.092c1.123-0.901,1.857-1.609,2.201-2.125c0.288-0.427,0.433-0.913,0.433-1.458
		c0-0.638-0.222-1.127-0.664-1.466c-0.379-0.292-0.878-0.439-1.496-0.439c-1.426,0-2.206,0.828-2.339,2.485L75.854,94.186z"/>
	<path fill="#BF222F" d="M96.589,90.533v9.008h2.055v1.695h-2.055v3.108h-2.486v-3.108h-6.279v-1.589l5.353-9.114H96.589z
		 M94.103,99.542v-3.02c0-0.96,0.042-2.362,0.127-4.206h-0.296c-0.491,1.077-1.103,2.274-1.833,3.591l-2.033,3.635H94.103z"/>
	<path fill="#BF222F" d="M110.528,92.632l-2.634,0.816c-0.232-0.901-0.805-1.352-1.718-1.352c-1.896,0-2.891,1.619-2.981,4.855
		c0.751-1.077,1.871-1.616,3.36-1.616c1.384,0,2.47,0.448,3.256,1.343c0.695,0.791,1.043,1.823,1.043,3.1
		c0,1.568-0.53,2.798-1.591,3.688c-0.899,0.755-2.044,1.132-3.435,1.132c-1.777,0-3.115-0.591-4.015-1.773
		c-0.85-1.112-1.274-2.716-1.274-4.812c0-5.081,1.9-7.621,5.7-7.621C108.347,90.393,109.776,91.139,110.528,92.632z M103.216,98.804
		c0,2.71,0.864,4.065,2.592,4.065c1.553,0,2.329-1.007,2.329-3.02c0-1.855-0.741-2.784-2.224-2.784
		C104.804,97.065,103.904,97.645,103.216,98.804z"/>
	<path fill="#BF222F" d="M112.867,93.352c0.33-1.018,0.983-1.785,1.96-2.3c0.835-0.439,1.844-0.658,3.023-0.658
		c1.587,0,2.841,0.369,3.762,1.106c0.786,0.626,1.18,1.408,1.18,2.344c0,0.873-0.313,1.589-0.938,2.151
		c-0.556,0.492-1.293,0.805-2.213,0.939v0.123c1.187,0.211,2.083,0.65,2.687,1.317c0.527,0.579,0.79,1.293,0.79,2.142
		c0,1.299-0.548,2.33-1.644,3.09c-0.948,0.662-2.156,0.992-3.624,0.992c-2.789,0-4.534-1.012-5.236-3.038l2.645-0.65
		c0.196,0.732,0.523,1.247,0.979,1.545c0.394,0.263,0.924,0.395,1.591,0.395c0.836,0,1.479-0.231,1.929-0.693
		c0.4-0.41,0.601-0.951,0.601-1.625c0-1.656-1.064-2.485-3.192-2.485h-1.254v-1.835h1.138c2.016,0,3.023-0.72,3.023-2.16
		c0-0.662-0.231-1.159-0.695-1.493c-0.394-0.287-0.916-0.43-1.569-0.43c-0.64,0-1.163,0.176-1.57,0.527
		c-0.379,0.328-0.618,0.781-0.716,1.361L112.867,93.352z"/>
	<path fill="#1C4280" d="M140.903,90.621v1.8h-6.511l-0.138,2.766c-0.021,0.498-0.063,0.931-0.126,1.3
		c0.639-0.791,1.58-1.186,2.823-1.186c1.469,0,2.638,0.462,3.509,1.387c0.759,0.82,1.138,1.855,1.138,3.108
		c0,1.54-0.552,2.757-1.654,3.652c-0.955,0.767-2.159,1.15-3.613,1.15c-1.412,0-2.554-0.281-3.425-0.843
		c-0.786-0.503-1.313-1.217-1.58-2.142l2.634-0.667c0.288,1.271,1.071,1.905,2.35,1.905c0.836,0,1.479-0.301,1.929-0.904
		c0.4-0.527,0.601-1.232,0.601-2.116c0-0.948-0.239-1.666-0.717-2.151c-0.415-0.421-0.977-0.632-1.686-0.632
		c-1.174,0-1.949,0.515-2.329,1.545l-2.244-0.272l0.327-7.7H140.903z"/>
	<path fill="#1C4280" d="M143.854,94.186c0.196-1.294,0.812-2.274,1.844-2.941c0.871-0.568,1.949-0.852,3.234-0.852
		c1.608,0,2.852,0.363,3.729,1.088c0.794,0.65,1.19,1.519,1.19,2.608c0,0.819-0.273,1.589-0.821,2.309
		c-0.492,0.644-1.327,1.422-2.508,2.335c-2.079,1.551-3.417,2.821-4.014,3.811h7.406v1.8h-10.209v-1.598
		c0.934-1.627,2.504-3.324,4.71-5.092c1.123-0.901,1.857-1.609,2.201-2.125c0.288-0.427,0.433-0.913,0.433-1.458
		c0-0.638-0.222-1.127-0.664-1.466c-0.379-0.292-0.878-0.439-1.496-0.439c-1.426,0-2.206,0.828-2.339,2.485L143.854,94.186z"/>
	<path fill="#1C4280" d="M156.128,93.352c0.33-1.018,0.983-1.785,1.96-2.3c0.835-0.439,1.844-0.658,3.023-0.658
		c1.587,0,2.841,0.369,3.762,1.106c0.786,0.626,1.18,1.408,1.18,2.344c0,0.873-0.313,1.589-0.938,2.151
		c-0.556,0.492-1.293,0.805-2.213,0.939v0.123c1.187,0.211,2.083,0.65,2.687,1.317c0.527,0.579,0.79,1.293,0.79,2.142
		c0,1.299-0.548,2.33-1.644,3.09c-0.948,0.662-2.156,0.992-3.624,0.992c-2.789,0-4.534-1.012-5.236-3.038l2.645-0.65
		c0.196,0.732,0.523,1.247,0.979,1.545c0.394,0.263,0.924,0.395,1.591,0.395c0.836,0,1.479-0.231,1.929-0.693
		c0.4-0.41,0.601-0.951,0.601-1.625c0-1.656-1.064-2.485-3.192-2.485h-1.254v-1.835h1.138c2.016,0,3.023-0.72,3.023-2.16
		c0-0.662-0.231-1.159-0.695-1.493c-0.394-0.287-0.916-0.43-1.569-0.43c-0.64,0-1.163,0.176-1.57,0.527
		c-0.379,0.328-0.618,0.781-0.716,1.361L156.128,93.352z"/>
	<path fill="#1C4280" d="M175.683,96.987c1.257,0.498,2.132,1.065,2.623,1.703c0.429,0.556,0.643,1.255,0.643,2.099
		c0,1.223-0.548,2.186-1.644,2.888c-0.948,0.615-2.17,0.922-3.666,0.922c-1.749,0-3.104-0.377-4.067-1.132
		c-0.843-0.662-1.264-1.531-1.264-2.608c0-0.825,0.291-1.516,0.874-2.072c0.492-0.468,1.265-0.919,2.318-1.352
		c-1.061-0.457-1.813-0.998-2.255-1.625c-0.365-0.521-0.548-1.147-0.548-1.879c0-1.077,0.509-1.955,1.527-2.634
		c0.906-0.603,2.037-0.904,3.393-0.904c1.56,0,2.807,0.366,3.74,1.097c0.814,0.632,1.223,1.422,1.223,2.371
		C178.58,95.283,177.614,96.325,175.683,96.987z M173.144,98.119c-0.836,0.386-1.43,0.791-1.781,1.212
		c-0.322,0.392-0.484,0.854-0.484,1.387c0,0.714,0.277,1.276,0.832,1.686c0.492,0.363,1.128,0.544,1.907,0.544
		c0.913,0,1.615-0.211,2.107-0.632c0.436-0.369,0.653-0.854,0.653-1.458c0-0.573-0.215-1.05-0.643-1.431
		c-0.387-0.333-1.043-0.685-1.971-1.053L173.144,98.119z M174.092,96.337c0.751-0.328,1.274-0.696,1.569-1.106
		c0.246-0.345,0.369-0.772,0.369-1.282c0-0.615-0.26-1.1-0.78-1.458c-0.436-0.298-0.979-0.448-1.633-0.448
		c-0.759,0-1.355,0.188-1.791,0.562c-0.387,0.333-0.579,0.77-0.579,1.308c0,0.509,0.186,0.931,0.559,1.264
		c0.337,0.311,0.898,0.621,1.686,0.931L174.092,96.337z"/>
	<path fill="#1C4280" d="M190.38,90.621v1.8h-6.511l-0.138,2.766c-0.021,0.498-0.063,0.931-0.126,1.3
		c0.639-0.791,1.58-1.186,2.823-1.186c1.469,0,2.638,0.462,3.509,1.387c0.759,0.82,1.138,1.855,1.138,3.108
		c0,1.54-0.552,2.757-1.654,3.652c-0.955,0.767-2.159,1.15-3.613,1.15c-1.412,0-2.554-0.281-3.425-0.843
		c-0.786-0.503-1.313-1.217-1.58-2.142l2.634-0.667c0.288,1.271,1.071,1.905,2.35,1.905c0.836,0,1.479-0.301,1.929-0.904
		c0.4-0.527,0.601-1.232,0.601-2.116c0-0.948-0.239-1.666-0.717-2.151c-0.415-0.421-0.977-0.632-1.686-0.632
		c-1.174,0-1.949,0.515-2.329,1.545l-2.244-0.272l0.327-7.7H190.38z"/>
</g>
<g>
	<path fill="#1C4280" d="M31.075,121.703l-1.55,0.295c-0.149-0.785-0.561-1.178-1.234-1.178c-1.041,0-1.563,0.689-1.563,2.066
		c0,1.385,0.521,2.077,1.563,2.077c0.735,0,1.18-0.406,1.333-1.22l1.488,0.342c-0.182,0.641-0.548,1.119-1.098,1.436
		c-0.476,0.275-1.063,0.414-1.761,0.414c-1.059,0-1.868-0.303-2.431-0.91c-0.487-0.529-0.731-1.236-0.731-2.117
		c0-1.01,0.322-1.79,0.968-2.342c0.558-0.479,1.289-0.718,2.194-0.718c0.802,0,1.453,0.183,1.953,0.548
		C30.641,120.713,30.931,121.148,31.075,121.703z"/>
	<path fill="#1C4280" d="M36.178,119.849l-0.105,1.251c-0.889,0-1.548,0.49-1.979,1.473v3.213H32.52v-5.807h1.5v1.426
		C34.471,120.367,35.189,119.849,36.178,119.849z"/>
	<path fill="#1C4280" d="M43.351,123.171h-4.712c0.008,0.606,0.178,1.071,0.509,1.396c0.302,0.293,0.717,0.439,1.246,0.439
		c0.748,0,1.237-0.369,1.469-1.106l1.451,0.352c-0.438,1.122-1.418,1.685-2.938,1.685c-1.112,0-1.957-0.301-2.536-0.899
		c-0.509-0.523-0.763-1.229-0.763-2.118c0-1.006,0.331-1.787,0.992-2.346c0.566-0.482,1.29-0.724,2.17-0.724
		c0.983,0,1.761,0.298,2.331,0.894c0.521,0.541,0.781,1.26,0.781,2.154V123.171z M41.788,122.293
		c-0.078-1.016-0.587-1.524-1.525-1.524c-0.508,0-0.902,0.155-1.184,0.465c-0.24,0.266-0.378,0.618-0.416,1.06H41.788z"/>
	<path fill="#1C4280" d="M44.758,121.439c0.36-1.066,1.321-1.602,2.884-1.602c1.802,0,2.703,0.643,2.703,1.928v2.305
		c0,0.561,0.037,1.133,0.111,1.715h-1.47c-0.045-0.217-0.085-0.471-0.117-0.76c-0.501,0.6-1.232,0.899-2.195,0.899
		c-0.69,0-1.231-0.176-1.624-0.526c-0.348-0.311-0.521-0.71-0.521-1.199c0-1.033,0.759-1.672,2.275-1.917
		c0.563-0.089,1.226-0.145,1.99-0.165v-0.331c0-0.386-0.109-0.659-0.328-0.821c-0.19-0.138-0.483-0.207-0.881-0.207
		c-0.363,0-0.665,0.099-0.905,0.295c-0.219,0.18-0.361,0.42-0.428,0.723L44.758,121.439z M48.794,122.938
		c-0.533,0.011-1.066,0.067-1.6,0.171c-0.76,0.151-1.141,0.48-1.141,0.986c0,0.586,0.372,0.879,1.116,0.879
		c0.678,0,1.22-0.318,1.624-0.956V122.938z"/>
	<path fill="#1C4280" d="M54.257,118.082v1.896h1.563v0.971h-1.563v3.188c0,0.559,0.287,0.838,0.861,0.838
		c0.311,0,0.581-0.023,0.813-0.067l-0.062,0.95c-0.352,0.045-0.768,0.067-1.246,0.067c-0.707,0-1.216-0.142-1.525-0.424
		c-0.277-0.251-0.416-0.625-0.416-1.121v-3.431h-1.041v-0.971h1.041v-1.598L54.257,118.082z"/>
	<path fill="#1C4280" d="M58.832,117.576v1.363h-1.729v-1.363H58.832z M58.764,119.979v5.807h-1.6v-5.807H58.764z"/>
	<path fill="#1C4280" d="M63.55,119.849c1.017,0,1.813,0.306,2.387,0.915c0.509,0.541,0.763,1.244,0.763,2.113
		c0,1.002-0.326,1.782-0.979,2.34c-0.563,0.479-1.289,0.719-2.183,0.719c-1.024,0-1.822-0.305-2.393-0.915
		c-0.505-0.537-0.757-1.241-0.757-2.112c0-1,0.329-1.779,0.986-2.342C61.939,120.088,62.665,119.849,63.55,119.849z M63.55,120.811
		c-1.017,0-1.525,0.691-1.525,2.076c0,1.392,0.505,2.088,1.513,2.088c1.018,0,1.525-0.696,1.525-2.088
		C65.063,121.502,64.559,120.811,63.55,120.811z"/>
	<path fill="#1C4280" d="M69.886,119.979v1.018c0.306-0.379,0.67-0.67,1.091-0.873c0.385-0.184,0.783-0.274,1.197-0.274
		c0.632,0,1.13,0.173,1.494,0.517c0.33,0.311,0.496,0.721,0.496,1.23v4.189h-1.637v-3.818c0-0.65-0.322-0.977-0.968-0.977
		c-0.297,0-0.604,0.101-0.917,0.301c-0.27,0.175-0.505,0.404-0.707,0.687v3.808h-1.6v-5.807H69.886z"/>
	<path fill="#1C4280" d="M81.214,121.332l-1.513,0.361c-0.174-0.623-0.587-0.936-1.24-0.936c-0.355,0-0.635,0.069-0.837,0.207
		c-0.17,0.11-0.254,0.25-0.254,0.418c0,0.245,0.093,0.428,0.278,0.549c0.174,0.109,0.494,0.217,0.961,0.32l0.583,0.129
		c0.843,0.186,1.424,0.426,1.742,0.718c0.281,0.259,0.422,0.608,0.422,1.049c0,0.579-0.267,1.026-0.8,1.343
		c-0.492,0.297-1.166,0.445-2.021,0.445c-1.517,0-2.486-0.484-2.907-1.452l1.487-0.435c0.224,0.651,0.709,0.977,1.457,0.977
		c0.848,0,1.271-0.249,1.271-0.748c0-0.248-0.1-0.43-0.298-0.543c-0.17-0.094-0.519-0.203-1.048-0.331l-0.583-0.134
		c-0.806-0.18-1.357-0.414-1.655-0.703c-0.261-0.255-0.391-0.609-0.391-1.064c0-0.52,0.254-0.932,0.763-1.234
		c0.467-0.279,1.085-0.419,1.854-0.419C79.903,119.849,80.813,120.344,81.214,121.332z"/>
	<path fill="#1C4280" d="M84.605,124.323v1.462h-1.817v-1.462H84.605z"/>
	<path fill="#BF222F" d="M95.015,117.664v8.129h-2.17v-1.402c-0.376,0.53-0.865,0.939-1.467,1.229
		c-0.532,0.255-1.1,0.384-1.701,0.384c-0.886,0-1.586-0.227-2.101-0.681c-0.48-0.429-0.721-1.003-0.721-1.722v-5.938h2.292v5.402
		c0,0.893,0.457,1.338,1.371,1.338c0.439,0,0.886-0.148,1.337-0.447c0.382-0.256,0.688-0.572,0.92-0.948v-5.345H95.015z"/>
	<path fill="#BF222F" d="M105.162,114.488v1.482h-5.364l-0.113,2.279c-0.017,0.409-0.052,0.766-0.104,1.07
		c0.526-0.651,1.302-0.977,2.326-0.977c1.209,0,2.173,0.381,2.891,1.143c0.625,0.675,0.938,1.528,0.938,2.561
		c0,1.268-0.455,2.271-1.363,3.009c-0.787,0.632-1.779,0.948-2.978,0.948c-1.163,0-2.104-0.232-2.82-0.695
		c-0.648-0.414-1.082-1.002-1.303-1.765l2.171-0.55c0.236,1.047,0.882,1.57,1.936,1.57c0.688,0,1.218-0.249,1.588-0.746
		c0.33-0.434,0.495-1.015,0.495-1.742c0-0.781-0.197-1.373-0.591-1.772c-0.341-0.347-0.804-0.521-1.389-0.521
		c-0.966,0-1.605,0.424-1.918,1.272l-1.849-0.224l0.269-6.344H105.162z"/>
	<path fill="#BF222F" d="M107.801,119.711c0.504-1.495,1.849-2.242,4.036-2.242c2.523,0,3.784,0.898,3.784,2.697v3.227
		c0,0.785,0.053,1.586,0.156,2.4h-2.057c-0.063-0.303-0.119-0.658-0.165-1.063c-0.7,0.839-1.725,1.258-3.072,1.258
		c-0.967,0-1.725-0.245-2.274-0.737c-0.486-0.435-0.729-0.993-0.729-1.679c0-1.445,1.063-2.34,3.186-2.683
		c0.787-0.126,1.716-0.202,2.786-0.231v-0.463c0-0.541-0.153-0.924-0.46-1.15c-0.266-0.193-0.677-0.289-1.232-0.289
		c-0.509,0-0.932,0.137-1.268,0.412c-0.307,0.25-0.506,0.588-0.599,1.013L107.801,119.711z M113.451,121.809
		c-0.746,0.014-1.492,0.094-2.239,0.238c-1.064,0.212-1.597,0.672-1.597,1.381c0,0.82,0.521,1.23,1.563,1.23
		c0.948,0,1.707-0.446,2.273-1.338V121.809z"/>
	<path fill="#1C4280" d="M125.598,119.596l-1.153,2.687c-0.128,0.304-0.192,0.544-0.192,0.724c0,0.109,0.054,0.203,0.161,0.279
		c0.092,0.062,0.194,0.092,0.311,0.092c0.595,0,1.126-0.254,1.594-0.764c0.446-0.486,0.669-1.068,0.669-1.746
		c0-0.944-0.428-1.695-1.283-2.253c-0.735-0.476-1.651-0.714-2.746-0.714c-1.472,0-2.66,0.438-3.565,1.313
		c-0.757,0.738-1.135,1.621-1.135,2.65c0,1.147,0.463,2.054,1.389,2.719c0.802,0.578,1.813,0.867,3.032,0.867
		c1.811,0,3.17-0.544,4.079-1.633l0.465,0.311c-1.07,1.205-2.585,1.809-4.544,1.809c-1.575,0-2.842-0.43-3.801-1.287
		c-0.835-0.747-1.252-1.678-1.252-2.789c0-0.793,0.233-1.529,0.7-2.212c0.459-0.675,1.085-1.209,1.879-1.602
		c0.83-0.413,1.744-0.62,2.74-0.62c1.43,0,2.596,0.37,3.497,1.111c0.776,0.641,1.165,1.42,1.165,2.34
		c0,0.889-0.359,1.643-1.079,2.264c-0.604,0.516-1.281,0.774-2.033,0.774c-0.802,0-1.222-0.275-1.259-0.827
		c-0.409,0.537-0.955,0.807-1.637,0.807c-0.587,0-1.039-0.145-1.357-0.434c-0.281-0.262-0.422-0.611-0.422-1.049
		c0-0.858,0.355-1.596,1.066-2.212c0.62-0.537,1.331-0.806,2.133-0.806c0.326,0,0.591,0.074,0.794,0.222
		c0.189,0.134,0.299,0.315,0.328,0.542l0.254-0.563H125.598z M123.899,120.784c0-0.579-0.263-0.868-0.788-0.868
		c-0.508,0-0.978,0.301-1.407,0.904c-0.376,0.527-0.564,1.083-0.564,1.668c0,0.29,0.075,0.511,0.224,0.662
		c0.128,0.131,0.3,0.196,0.515,0.196c0.637,0,1.105-0.372,1.407-1.116L123.899,120.784z"/>
	<path fill="#1C4280" d="M135.282,119.172l-0.1,1.07c-0.355,0-0.626,0.025-0.812,0.076c-0.146,0.042-0.29,0.116-0.435,0.223
		c0.381,0.328,0.57,0.715,0.57,1.162c0,0.635-0.289,1.125-0.868,1.473c-0.487,0.297-1.111,0.445-1.872,0.445
		c-0.322,0-0.624-0.033-0.905-0.099c-0.339,0.142-0.508,0.31-0.508,0.507c0,0.137,0.069,0.235,0.21,0.294s0.393,0.102,0.757,0.129
		l1.575,0.108c0.934,0.076,1.589,0.256,1.965,0.537c0.298,0.231,0.446,0.553,0.446,0.967c0,0.561-0.341,1.004-1.022,1.328
		c-0.624,0.293-1.451,0.439-2.48,0.439c-1.058,0-1.868-0.146-2.431-0.439c-0.471-0.248-0.706-0.572-0.706-0.972
		c0-0.496,0.428-0.873,1.283-1.132c-0.653-0.12-0.979-0.399-0.979-0.837c0-0.431,0.355-0.831,1.066-1.204
		c-0.661-0.352-0.992-0.862-0.992-1.534c0-0.599,0.289-1.071,0.868-1.415c0.491-0.301,1.113-0.45,1.866-0.45
		c0.574,0,1.068,0.093,1.481,0.279c0.244-0.368,0.533-0.624,0.868-0.765C134.422,119.236,134.807,119.172,135.282,119.172z
		 M130.911,125.449c-0.624,0.166-0.937,0.43-0.937,0.791c0,0.269,0.198,0.475,0.596,0.619c0.339,0.125,0.779,0.187,1.32,0.187
		c0.694,0,1.226-0.086,1.594-0.259c0.293-0.137,0.439-0.308,0.439-0.511c0-0.221-0.095-0.38-0.285-0.476
		c-0.189-0.093-0.522-0.16-0.998-0.201L130.911,125.449z M131.772,120.635c-0.393,0-0.708,0.106-0.948,0.32
		c-0.211,0.192-0.316,0.438-0.316,0.738c0,0.389,0.135,0.686,0.403,0.889c0.224,0.169,0.511,0.253,0.861,0.253
		c0.405,0,0.724-0.108,0.955-0.325c0.211-0.203,0.316-0.473,0.316-0.807c0-0.351-0.139-0.627-0.415-0.826
		C132.401,120.715,132.116,120.635,131.772,120.635z"/>
	<path fill="#1C4280" d="M138.178,119.979v1.018c0.595-0.766,1.326-1.147,2.194-1.147c0.483,0,0.883,0.117,1.196,0.352
		c0.261,0.2,0.435,0.462,0.521,0.785c0.599-0.757,1.335-1.137,2.207-1.137c0.616,0,1.095,0.173,1.438,0.517
		c0.31,0.307,0.465,0.717,0.465,1.23v4.189h-1.6v-3.818c0-0.65-0.322-0.977-0.967-0.977c-0.29,0-0.577,0.104-0.862,0.311
		c-0.244,0.18-0.442,0.404-0.595,0.677v3.808h-1.575v-3.818c0-0.65-0.287-0.977-0.861-0.977c-0.294,0-0.587,0.102-0.881,0.305
		c-0.256,0.18-0.467,0.407-0.633,0.683v3.808h-1.574v-5.807H138.178z"/>
	<path fill="#1C4280" d="M148.017,121.439c0.36-1.066,1.321-1.602,2.884-1.602c1.802,0,2.703,0.643,2.703,1.928v2.305
		c0,0.561,0.037,1.133,0.111,1.715h-1.47c-0.045-0.217-0.085-0.471-0.117-0.76c-0.501,0.6-1.232,0.899-2.195,0.899
		c-0.69,0-1.231-0.176-1.624-0.526c-0.348-0.311-0.521-0.71-0.521-1.199c0-1.033,0.759-1.672,2.275-1.917
		c0.563-0.089,1.226-0.145,1.99-0.165v-0.331c0-0.386-0.109-0.659-0.328-0.821c-0.19-0.138-0.483-0.207-0.881-0.207
		c-0.363,0-0.665,0.099-0.905,0.295c-0.219,0.18-0.361,0.42-0.428,0.723L148.017,121.439z M152.053,122.938
		c-0.533,0.011-1.066,0.067-1.6,0.171c-0.76,0.151-1.141,0.48-1.141,0.986c0,0.586,0.372,0.879,1.116,0.879
		c0.678,0,1.22-0.318,1.624-0.956V122.938z"/>
	<path fill="#1C4280" d="M157.268,117.576v1.363h-1.729v-1.363H157.268z M157.199,119.979v5.807h-1.6v-5.807H157.199z"/>
	<path fill="#1C4280" d="M160.845,117.426v8.359h-1.6v-8.359H160.845z"/>
	<path fill="#1C4280" d="M164.553,124.323v1.462h-1.817v-1.462H164.553z"/>
	<path fill="#1C4280" d="M172.005,121.703l-1.55,0.295c-0.149-0.785-0.561-1.178-1.234-1.178c-1.041,0-1.563,0.689-1.563,2.066
		c0,1.385,0.521,2.077,1.563,2.077c0.735,0,1.18-0.406,1.333-1.22l1.488,0.342c-0.182,0.641-0.548,1.119-1.098,1.436
		c-0.476,0.275-1.063,0.414-1.761,0.414c-1.059,0-1.868-0.303-2.431-0.91c-0.487-0.529-0.731-1.236-0.731-2.117
		c0-1.01,0.322-1.79,0.968-2.342c0.558-0.479,1.289-0.718,2.194-0.718c0.802,0,1.453,0.183,1.953,0.548
		C171.57,120.713,171.86,121.148,172.005,121.703z"/>
	<path fill="#1C4280" d="M176.189,119.849c1.017,0,1.813,0.306,2.387,0.915c0.509,0.541,0.763,1.244,0.763,2.113
		c0,1.002-0.326,1.782-0.979,2.34c-0.563,0.479-1.289,0.719-2.183,0.719c-1.024,0-1.822-0.305-2.393-0.915
		c-0.505-0.537-0.757-1.241-0.757-2.112c0-1,0.329-1.779,0.986-2.342C174.579,120.088,175.305,119.849,176.189,119.849z
		 M176.189,120.811c-1.017,0-1.525,0.691-1.525,2.076c0,1.392,0.505,2.088,1.513,2.088c1.018,0,1.525-0.696,1.525-2.088
		C177.702,121.502,177.198,120.811,176.189,120.811z"/>
	<path fill="#1C4280" d="M182.501,119.979v1.018c0.595-0.766,1.326-1.147,2.194-1.147c0.483,0,0.883,0.117,1.196,0.352
		c0.261,0.2,0.435,0.462,0.521,0.785c0.599-0.757,1.335-1.137,2.207-1.137c0.616,0,1.095,0.173,1.438,0.517
		c0.31,0.307,0.465,0.717,0.465,1.23v4.189h-1.6v-3.818c0-0.65-0.322-0.977-0.967-0.977c-0.29,0-0.577,0.104-0.862,0.311
		c-0.244,0.18-0.442,0.404-0.595,0.677v3.808h-1.575v-3.818c0-0.65-0.287-0.977-0.861-0.977c-0.294,0-0.587,0.102-0.881,0.305
		c-0.256,0.18-0.467,0.407-0.633,0.683v3.808h-1.574v-5.807H182.501z"/>
</g>
</svg>
